<svg width="518.7" height="70.00205731980111" viewBox="0 0 350 47.23485649109387" class="looka-1j8o68f"><defs id="SvgjsDefs1523"></defs><g id="SvgjsG1524" featurekey="8L6ael-0" transform="matrix(3.1574099839242935,0,0,3.1574099839242935,-0.6240539452629318,-15.787045402910255)" fill="#a6a6a6"><path d="M20.72 5.300000000000001 q0.2 0.28 0.1 0.62 l-4.22 13.54 q-0.06 0.22 -0.25 0.36 t-0.43 0.14 l-1.74 0 q-0.22 0 -0.41 -0.14 t-0.25 -0.34 l-3 -9.28 l-2.98 9.28 q-0.08 0.22 -0.26 0.35 t-0.42 0.13 l-1.74 0 q-0.36 0 -0.58 -0.28 q-0.2 -0.34 -0.08 -0.64 l4.52 -13.56 q0.06 -0.2 0.25 -0.34 t0.41 -0.14 l1.76 0 q0.24 0 0.42 0.14 t0.26 0.36 l2.96 9.2 l2.8 -9.2 q0.08 -0.22 0.27 -0.36 t0.41 -0.14 l1.62 0 q0.38 0 0.58 0.3 z M3.2 5.5 l1.14 3.74 q0.12 0.34 -0.1 0.63 t-0.58 0.29 l-1.58 0 q-0.24 0 -0.43 -0.14 t-0.25 -0.36 l-1.16 -3.74 q-0.12 -0.34 0.1 -0.63 t0.56 -0.29 l1.62 0 q0.24 0 0.43 0.14 t0.25 0.36 z M30.228 5.16 q0.24 0.2 0.24 0.54 l0 1.5 q0 0.26 -0.15 0.45 t-0.41 0.25 q-1.28 0.26 -2.18 1.22 q-1.22 1.28 -1.22 3.33 t1.22 3.35 q0.9 0.94 2.18 1.2 q0.26 0.06 0.41 0.25 t0.15 0.45 l0 1.5 q0 0.32 -0.24 0.54 q-0.22 0.16 -0.46 0.16 l-0.12 0 q-2.32 -0.38 -3.98 -2.1 q-2.08 -2.14 -2.08 -5.33 t2.08 -5.37 q1.62 -1.68 3.98 -2.08 q0.32 -0.06 0.58 0.14 z M36.507999999999996 7.1 q2.08 2.18 2.08 5.37 t-2.08 5.33 q-1.66 1.72 -3.98 2.1 l-0.12 0 q-0.24 0 -0.46 -0.16 q-0.24 -0.22 -0.24 -0.54 l0 -1.5 q0 -0.26 0.15 -0.45 t0.41 -0.25 q1.28 -0.26 2.18 -1.2 q1.22 -1.3 1.22 -3.35 t-1.22 -3.33 q-0.9 -0.96 -2.18 -1.22 q-0.26 -0.06 -0.41 -0.25 t-0.15 -0.45 l0 -1.5 q0 -0.34 0.25 -0.54 t0.57 -0.14 q2.36 0.4 3.98 2.08 z M52.236 14.1 l3.02 4.62 q0.22 0.36 0.02 0.72 q-0.08 0.16 -0.25 0.26 t-0.35 0.1 l-1.82 0 q-0.18 0 -0.34 -0.09 t-0.24 -0.23 l-3.04 -4.82 l-3.56 0 l0 4.44 q0 0.28 -0.21 0.49 t-0.49 0.21 l-1.52 0 q-0.28 0 -0.49 -0.21 t-0.21 -0.49 l0 -6.58 q0 -0.28 0.21 -0.49 t0.49 -0.21 l6.16 0 q1.76 0 2.34 -1 q0.2 -0.32 0.2 -0.92 q0 -0.94 -0.62 -1.48 q-0.64 -0.58 -1.84 -0.58 l-6.24 0 q-0.28 0 -0.49 -0.21 t-0.21 -0.49 l0 -1.44 q0 -0.28 0.21 -0.49 t0.49 -0.21 l6.42 0 q2.34 0 3.74 1.32 q1.46 1.32 1.46 3.58 q0 1.46 -0.64 2.49 t-1.86 1.57 z M72.144 18.7 q0.12 0.14 0.14 0.34 t-0.07 0.38 t-0.26 0.28 t-0.37 0.1 l-1.9 0 q-0.18 0 -0.33 -0.08 t-0.25 -0.22 l-4.78 -6.88 l-1.96 1.84 l0 4.64 q0 0.28 -0.21 0.49 t-0.49 0.21 l-1.52 0 q-0.28 0 -0.49 -0.21 t-0.21 -0.49 l0 -5.56 q0 -0.32 0.22 -0.5 l8.36 -7.84 q0.2 -0.2 0.48 -0.2 l2.16 0 q0.2 0 0.38 0.12 t0.26 0.32 t0.04 0.41 t-0.2 0.37 l-4.68 4.4 z M60.144 10.1 q-0.28 0 -0.49 -0.2 t-0.21 -0.5 l0 -3.7 q0 -0.28 0.21 -0.49 t0.49 -0.21 l1.52 0 q0.28 0 0.49 0.21 t0.21 0.49 l0 3.7 q0 0.3 -0.21 0.5 t-0.49 0.2 l-1.52 0 z M88.732 18.86 q0.14 0.32 -0.07 0.65 t-0.57 0.33 l-13.32 0 q-0.18 0 -0.34 -0.09 t-0.24 -0.23 q-0.22 -0.32 -0.06 -0.66 l0.62 -1.46 q0.08 -0.2 0.26 -0.32 t0.38 -0.12 l9.32 0 l-3.28 -7.84 l-2.68 6.4 q-0.08 0.2 -0.25 0.31 t-0.39 0.11 l-1.68 0 q-0.38 0 -0.6 -0.32 q-0.08 -0.14 -0.1 -0.32 t0.04 -0.34 l4.06 -9.52 q0.08 -0.2 0.25 -0.32 t0.39 -0.12 l1.92 0 q0.22 0 0.39 0.12 t0.25 0.32 z M99.02 5 q2.38 0 3.84 1.37 t1.46 3.65 t-1.44 3.64 t-3.86 1.36 l-3.82 0 l0 4.08 q0 0.28 -0.21 0.49 t-0.49 0.21 l-1.52 0 q-0.28 0 -0.49 -0.21 t-0.21 -0.49 l0 -6.2 q0 -0.28 0.21 -0.49 t0.49 -0.21 l5.92 0 q1.34 0 1.92 -0.58 q0.58 -0.52 0.58 -1.58 t-0.6 -1.63 t-1.9 -0.57 l-5.92 0 q-0.28 0 -0.49 -0.21 t-0.21 -0.49 l0 -1.44 q0 -0.28 0.21 -0.49 t0.49 -0.21 l6.04 0 z M110.348 10.94 q0.3 0 0.5 0.21 t0.2 0.51 l0 7.48 q0 0.28 -0.2 0.49 t-0.5 0.21 l-1.52 0 q-0.28 0 -0.49 -0.21 t-0.21 -0.49 l0 -7.48 q0 -0.3 0.21 -0.51 t0.49 -0.21 l1.52 0 z M110.348 5 q0.3 0 0.5 0.21 t0.2 0.49 l0 3.7 q0 0.3 -0.2 0.51 t-0.5 0.21 l-1.52 0 q-0.28 0 -0.49 -0.21 t-0.21 -0.51 l0 -3.7 q0 -0.28 0.21 -0.49 t0.49 -0.21 l1.52 0 z"></path></g></svg>